PathFileType	4	(X/Y/Z)	E:\3-PhD\Data\MocapData\ElaboratedData\009\pre\dynamicElaborations\RunA1\RunA1.trc
DataRate	CameraRate	NumFrames	NumMarkers	Units	OrigDataRate	DataStartFrame
200	200	6	54	mm	200	4.160000e+02
Frame#	Time	FHD			LBHD			RBHD			C7			T10			CLAV			LSHO			LUUPA			LMUPA			LDUPA			LLEP			LMEP			LRAD			LUL			LRFIN			RSHO			RUPA1			RMUPA			RDUPA			RLEP			RMEP			RRAD			RUL			RUFIN			RASI			USACR			LSACR			RSACR			LTHI1			LTHI2			LTHI3			LTHI4			LTIB1			LTIB2			LTIB3			LTIB4			LLMAL			LHEE			LMT1			LMT2			RTHI			RTHI2			RTHI3			RTHI4			RLFC			RTIB1			RTIB2			RTIB3			RTIB4			RLMAL			RHEE			RMT1			RMT2			RMT5		
		X1	Y1	Z1	X2	Y2	Z2	X3	Y3	Z3	X4	Y4	Z4	X5	Y5	Z5	X6	Y6	Z6	X7	Y7	Z7	X8	Y8	Z8	X9	Y9	Z9	X10	Y10	Z10	X11	Y11	Z11	X12	Y12	Z12	X13	Y13	Z13	X14	Y14	Z14	X15	Y15	Z15	X16	Y16	Z16	X17	Y17	Z17	X18	Y18	Z18	X19	Y19	Z19	X20	Y20	Z20	X21	Y21	Z21	X22	Y22	Z22	X23	Y23	Z23	X24	Y24	Z24	X25	Y25	Z25	X26	Y26	Z26	X27	Y27	Z27	X28	Y28	Z28	X29	Y29	Z29	X30	Y30	Z30	X31	Y31	Z31	X32	Y32	Z32	X33	Y33	Z33	X34	Y34	Z34	X35	Y35	Z35	X36	Y36	Z36	X37	Y37	Z37	X38	Y38	Z38	X39	Y39	Z39	X40	Y40	Z40	X41	Y41	Z41	X42	Y42	Z42	X43	Y43	Z43	X44	Y44	Z44	X45	Y45	Z45	X46	Y46	Z46	X47	Y47	Z47	X48	Y48	Z48	X49	Y49	Z49	X50	Y50	Z50	X51	Y51	Z51	X52	Y52	Z52	X53	Y53	Z53	X54	Y54	Z54	

440	2.195000	-2235.744034	1540.994251	319.845027	-2407.781819	1575.781502	225.346867	-2376.540884	1552.103689	346.409179	-2475.636679	1447.916246	276.110345	-2685.299068	1177.525329	336.952308	-2393.885306	1305.599478	253.608748	-2422.319399	1370.141269	117.421638	-2541.110817	1223.638481	23.836377	-2513.801648	1185.267506	29.556039	-2566.208365	1161.051026	11.416343	-2618.622872	1050.110556	0.140986	-2643.228112	1040.539174	67.286328	-2438.602411	887.810503	79.137340	-2478.540707	829.818547	55.964645	-2383.179225	864.798372	44.578683	-2379.191816	1368.880113	422.296782	-2480.420121	1255.440216	533.553820	-2476.029980	1209.513661	521.784666	-2521.021362	1207.293997	562.920917	-2604.373927	1103.572660	600.065277	-2643.258979	1100.151980	542.188132	-2535.733705	850.593841	562.163230	-2581.099194	843.245803	612.570561	-2490.347019	800.891033	613.416257	-2594.726542	934.603536	404.859918	-2738.096253	1096.272500	347.956531	-2760.903018	1073.132394	320.219469	-2745.639655	1062.734112	375.789303	-2670.770825	767.229546	91.111921	-2612.402952	705.059929	83.506602	-2568.126531	721.922709	92.860766	-2619.595727	644.284997	93.531660	-2558.761257	360.247059	141.648196	-2633.656604	331.587827	104.923039	-2595.463727	319.765424	122.097826	-2613.575635	245.932165	160.280527	-2711.200549	115.221729	168.610457	-2790.353729	83.968226	219.835515	-2569.267500	61.125964	232.070822	-2570.976423	55.653149	186.270336	-2654.749197	694.861978	475.893055	-2617.434705	640.989689	470.605906	-2585.854556	641.031863	457.614291	-2647.722522	562.800987	459.733891	-2646.265347	466.693941	431.824621	-2836.423801	437.878900	361.276305	-2907.563506	511.846160	395.212246	-2912.240398	471.476171	372.878492	-2956.699214	474.294474	336.703652	-3041.717889	545.993809	364.652391	-3055.627217	626.891585	321.072386	-3129.149658	416.903172	268.442854	-3136.261623	413.759243	311.275481	-3158.513375	457.201157	363.727773	
441	2.200000	-2209.080825	1539.144355	319.044699	-2380.561142	1574.193261	223.558578	-2350.074583	1550.613230	344.755024	-2449.096371	1445.259129	274.523834	-2656.406274	1173.022657	337.610061	-2365.742962	1303.815842	252.903609	-2395.433754	1368.464845	116.831285	-2504.727682	1214.488401	25.005221	-2474.342527	1178.276727	30.769775	-2524.983892	1150.175814	12.961635	-2568.106150	1034.866358	2.576184	-2592.641777	1023.877486	69.498707	-2375.272773	891.944616	88.299043	-2409.043496	830.128885	65.403944	-2317.432980	873.894321	55.037533	-2353.178666	1367.824365	421.847098	-2458.261628	1258.907220	535.217927	-2455.066321	1212.481065	524.821457	-2500.500210	1212.800217	565.319024	-2586.611226	1112.711788	604.015548	-2627.064527	1111.193989	547.186985	-2540.547109	853.615894	570.534524	-2585.959118	851.372816	621.687622	-2499.024138	800.781146	621.814697	-2564.370595	929.890307	400.570702	-2708.845806	1092.575629	349.550999	-2732.045367	1069.714530	321.988202	-2715.889419	1058.722573	377.225902	-2649.294276	763.288274	90.938196	-2592.954742	699.281352	83.361343	-2548.169696	714.549144	93.179196	-2602.236848	638.803706	93.199841	-2550.592063	351.627614	142.520479	-2625.905453	325.433620	104.995912	-2588.407815	312.222904	122.944593	-2609.728646	239.332270	161.233970	-2711.990793	112.772612	168.912620	-2792.044545	81.597357	219.173681	-2570.830121	60.006090	233.049660	-2572.186704	54.852003	187.096913	-2614.681308	693.295431	474.055287	-2574.693105	641.404169	468.835297	-2543.265021	642.953925	455.257406	-2601.045667	561.970298	457.806073	-2595.137348	466.983969	429.505307	-2784.758255	437.926201	359.876827	-2855.954234	511.248487	394.745211	-2860.558042	471.070434	372.159090	-2905.342760	473.922992	336.482757	-2989.777628	545.181380	365.362962	-3006.894988	625.945084	321.695541	-3076.127623	413.830707	272.217795	-3081.879190	410.797842	315.225207	-3103.773945	453.948747	367.873851	
442	2.205000	-2182.465873	1537.351980	318.284365	-2353.471984	1572.449582	221.914061	-2323.661450	1549.061248	343.274030	-2422.581112	1442.429704	273.011393	-2627.617961	1168.308648	338.172760	-2337.501638	1301.922799	252.443943	-2368.259157	1366.657272	116.431153	-2467.301859	1205.979719	26.261570	-2434.054871	1172.104620	32.203886	-2482.591403	1140.297001	14.578919	-2516.005825	1021.329290	5.192401	-2540.419247	1008.882259	71.810268	-2312.360964	899.040225	97.329511	-2339.572898	834.030152	74.706216	-2252.567548	886.275844	65.308158	-2327.283926	1366.975875	421.581328	-2436.117781	1262.652677	536.898080	-2434.114885	1215.754425	527.840106	-2479.972150	1218.702161	567.632283	-2568.731835	1122.468454	607.872357	-2610.573920	1123.025651	552.001029	-2544.280659	859.578216	578.269528	-2589.342757	862.045649	629.992090	-2506.589247	804.023176	629.504740	-2534.263887	925.080494	396.261120	-2679.649007	1088.838296	350.965609	-2703.251832	1066.196880	323.638606	-2686.181510	1054.733968	378.541290	-2628.152402	759.042708	90.890422	-2574.051908	693.132290	83.314159	-2528.745685	706.704765	93.334863	-2585.457606	633.058019	93.175988	-2542.890679	343.536680	143.548440	-2618.648665	319.701745	105.495194	-2581.771561	305.209466	124.017498	-2605.968692	233.305677	162.516606	-2712.703305	110.901045	169.665589	-2793.463780	79.828163	219.342581	-2572.092557	59.358039	233.977598	-2573.230764	54.528335	187.867286	-2574.482920	692.373609	472.005659	-2531.868551	642.686321	466.861095	-2500.688582	645.772816	452.707909	-2554.114474	562.168061	455.597230	-2543.702594	468.503569	426.927588	-2732.744857	437.996308	358.471831	-2804.343125	510.306600	394.332677	-2808.691016	470.251035	371.492932	-2853.843276	472.807932	336.358289	-2938.076767	543.115483	366.203906	-2958.973251	623.494738	322.505504	-3022.435822	409.023782	276.194040	-3026.765483	406.094632	319.312930	-3048.462830	448.801977	372.130207	
443	2.210000	-2155.845395	1535.682950	317.574399	-2326.483883	1570.586569	220.453002	-2297.244617	1547.475205	341.979471	-2396.031899	1439.478006	271.612084	-2598.913803	1163.481678	338.614388	-2309.135409	1299.976952	252.230693	-2340.721987	1364.800411	116.264529	-2428.846870	1198.293444	27.588427	-2392.996109	1166.900000	33.868769	-2439.107757	1131.601673	16.272645	-2462.515918	1009.745156	7.996780	-2486.732847	995.797383	74.218097	-2250.192537	909.082235	106.142244	-2270.540276	841.556622	83.788408	-2188.955357	901.862453	75.252830	-2301.435796	1366.303182	421.489111	-2413.898060	1266.641054	538.541494	-2413.108126	1219.314142	530.739586	-2459.340632	1224.944024	569.769729	-2550.782141	1132.883838	611.538178	-2593.733332	1135.622712	556.497794	-2546.638753	868.216610	585.314299	-2591.062882	874.964212	637.452063	-2512.688010	810.367263	636.480267	-2504.381153	920.311074	392.020962	-2650.505248	1085.136327	352.173977	-2674.515446	1062.643585	325.148966	-2656.509980	1050.849684	379.721230	-2607.463508	754.573290	91.033235	-2555.823294	686.727847	83.396807	-2509.997164	698.523826	93.269695	-2569.335367	627.164118	93.525438	-2535.612531	336.066017	144.654419	-2611.884388	314.516898	106.367436	-2575.557073	298.845860	125.246976	-2602.259031	227.936099	164.017931	-2713.244311	109.631133	170.800287	-2794.542301	78.727479	220.243731	-2572.993210	59.005700	234.838028	-2574.053527	54.497715	188.583969	-2534.225921	692.218059	469.837998	-2489.047917	644.938581	464.690354	-2458.220987	649.585931	449.988157	-2507.044973	563.504914	453.097963	-2492.101110	471.348837	424.082102	-2680.482965	438.147769	357.033831	-2752.833951	509.043140	393.944672	-2756.727776	469.053567	370.852953	-2802.275309	470.978640	336.299636	-2886.723340	539.777726	367.161843	-2911.920841	619.473347	323.525511	-2968.056278	402.556942	280.231252	-2970.948520	399.724367	323.380368	-2992.629685	441.813092	376.359470	
444	2.215000	-2129.161893	1534.201193	316.934019	-2299.561386	1568.643292	219.217416	-2270.765060	1545.884974	340.893230	-2369.384097	1436.470011	270.371252	-2570.261114	1158.652935	338.900950	-2280.618995	1298.032563	252.265808	-2312.751483	1362.992604	116.380215	-2389.408564	1191.617913	28.977365	-2351.249934	1162.812326	35.767346	-2394.645597	1124.276015	18.048901	-2407.885469	1000.337135	10.987120	-2431.803200	984.847506	76.717224	-2189.096730	922.013156	114.647061	-2202.367049	852.684029	92.568303	-2126.963809	920.517063	84.740863	-2275.555417	1365.767067	421.555311	-2391.507420	1270.864686	540.104772	-2391.971923	1223.170649	533.441701	-2438.499649	1231.496522	571.665406	-2532.757087	1143.995092	614.912692	-2576.467893	1148.944523	560.550588	-2547.394419	879.237691	591.623269	-2590.992136	889.832980	644.050995	-2517.044740	819.523966	642.736036	-2474.669902	915.723559	387.943167	-2621.399649	1081.542002	353.157271	-2645.809143	1059.119609	326.495478	-2626.858191	1047.141824	380.752390	-2587.318193	749.992484	91.431432	-2538.363430	680.222533	83.641594	-2492.034630	690.178388	92.955719	-2553.917932	621.272337	94.300106	-2528.715469	329.256352	145.788229	-2605.583939	309.962947	107.535120	-2569.755979	293.197827	126.568681	-2598.608349	223.263264	165.629383	-2713.561165	108.965920	172.209605	-2795.267718	78.330695	221.697367	-2573.530211	58.813762	235.624481	-2574.642314	54.618193	189.246479	-2493.979728	692.922710	467.642274	-2446.330269	648.231628	462.337945	-2415.967331	654.459480	447.123217	-2459.972033	566.059343	450.311116	-2440.495022	475.580176	420.968491	-2628.071598	438.424952	355.536782	-2701.520094	507.467163	393.557640	-2704.742971	467.507530	370.221288	-2750.694947	468.461743	336.284401	-2835.786455	535.149061	368.225121	-2865.739212	613.806977	324.779589	-2912.952546	394.525328	284.205056	-2914.439993	391.786287	327.290460	-2936.304013	433.063608	380.443706	
445	2.220000	-2102.358560	1532.962449	316.389501	-2272.662639	1566.663349	218.248166	-2244.163741	1544.323608	340.043089	-2342.570424	1433.486801	269.334543	-2541.616027	1153.943716	338.991980	-2251.927612	1296.137805	252.554359	-2284.282594	1361.344346	116.828322	-2349.068116	1186.137792	30.429504	-2308.926858	1159.982268	37.895172	-2349.352197	1118.494426	19.911591	-2352.416758	993.291438	14.146889	-2375.899565	976.226784	79.297117	-2129.399709	937.728224	122.752361	-2135.476108	867.324568	100.966762	-2066.944598	942.045012	93.653303	-2249.559995	1365.328042	421.766404	-2368.852379	1275.345091	541.551838	-2370.628828	1227.363434	535.894341	-2417.345209	1238.363483	573.274916	-2514.599476	1155.827188	617.894611	-2558.682906	1162.932621	564.039195	-2546.382571	892.329632	597.162535	-2589.056370	906.370627	649.786138	-2519.465703	831.172729	648.274466	-2445.057786	911.459675	384.117814	-2592.302050	1078.119472	353.902932	-2617.087252	1055.688361	327.652894	-2597.200356	1043.669726	381.621029	-2567.744771	745.429684	92.138423	-2521.700249	673.783909	84.081230	-2474.906693	681.853662	92.399912	-2539.201865	615.546702	95.532974	-2522.151011	323.119867	146.932861	-2599.679034	306.084511	108.913636	-2564.323140	288.287832	127.926023	-2595.033103	219.292719	167.260374	-2713.622256	108.887586	173.765937	-2795.661213	78.651616	223.473671	-2573.741841	58.684492	236.332950	-2575.010565	54.789523	189.846404	-2453.817308	694.544104	465.487424	-2403.829786	652.594517	459.825863	-2374.043202	660.420972	444.141349	-2413.047268	569.871945	447.256375	-2389.064613	481.220093	417.600692	-2575.602264	438.858255	353.961719	-2650.472271	505.579331	393.165850	-2652.792855	465.637026	369.591137	-2699.135289	465.282464	336.300670	-2785.285065	529.214163	369.386285	-2820.365473	606.423745	326.289992	-2857.069338	385.050130	288.006821	-2857.227646	382.406647	330.934184	-2879.485635	422.664801	384.290218	
